<svg width="25" height="24" viewBox="0 0 25 24" fill="none" xmlns="http://www.w3.org/2000/svg">
<mask id="mask0_45_1564" style="mask-type:alpha" maskUnits="userSpaceOnUse" x="0" y="0" width="25" height="24">
<rect x="0.5" width="24" height="24" fill="#D9D9D9"/>
</mask>
<g mask="url(#mask0_45_1564)">
<path d="M6.8577 12.75L10.1807 16.073C10.3192 16.2115 10.39 16.3856 10.3932 16.5953C10.3964 16.8048 10.3255 16.982 10.1807 17.127C10.0359 17.2718 9.8602 17.3443 9.6537 17.3443C9.44737 17.3443 9.27179 17.2718 9.12695 17.127L4.6327 12.6328C4.53904 12.5391 4.47304 12.4403 4.4347 12.3365C4.3962 12.2327 4.37695 12.1205 4.37695 12C4.37695 11.8795 4.3962 11.7673 4.4347 11.6635C4.47304 11.5597 4.53904 11.4609 4.6327 11.3673L9.12695 6.873C9.26545 6.73467 9.43945 6.66384 9.64895 6.6605C9.85862 6.65734 10.0359 6.72817 10.1807 6.873C10.3255 7.018 10.398 7.19367 10.398 7.4C10.398 7.60634 10.3255 7.782 10.1807 7.927L6.8577 11.25H19.1922C19.282 11.25 19.3558 11.2212 19.4135 11.1635C19.4711 11.1058 19.5 11.0321 19.5 10.9423V8C19.5 7.78717 19.5718 7.609 19.7155 7.4655C19.859 7.32184 20.0371 7.25 20.25 7.25C20.4628 7.25 20.641 7.32184 20.7845 7.4655C20.9281 7.609 21 7.78717 21 8V10.9423C21 11.4409 20.8234 11.8669 20.4702 12.2203C20.1169 12.5734 19.6909 12.75 19.1922 12.75H6.8577Z" fill="white"/>
</g>
</svg>
