<svg width="24" height="24" viewBox="0 0 24 24" fill="none" xmlns="http://www.w3.org/2000/svg">
<mask id="mask0_46_3041" style="mask-type:alpha" maskUnits="userSpaceOnUse" x="0" y="0" width="24" height="24">
<rect x="24" y="24" width="24" height="24" transform="rotate(180 24 24)" fill="#D9D9D9"/>
</mask>
<g mask="url(#mask0_46_3041)">
<path d="M16.8136 11.25L13.5213 7.95775C13.3725 7.80892 13.2991 7.63484 13.3011 7.4355C13.3029 7.23617 13.3763 7.05892 13.5213 6.90375C13.6763 6.74875 13.8545 6.66867 14.0558 6.6635C14.2572 6.65834 14.4353 6.73334 14.5903 6.8885L19.0693 11.3673C19.25 11.5481 19.3403 11.759 19.3403 12C19.3403 12.241 19.25 12.4519 19.0693 12.6328L14.5903 17.1115C14.4417 17.2602 14.2651 17.3336 14.0606 17.3318C13.8561 17.3298 13.6763 17.2513 13.5213 17.0963C13.3763 16.9411 13.3013 16.7654 13.2963 16.5693C13.2912 16.3731 13.3662 16.1974 13.5213 16.0423L16.8136 12.75L5.04808 12.75C4.83525 12.75 4.65708 12.6782 4.51358 12.5345C4.36991 12.391 4.29808 12.2128 4.29808 12C4.29808 11.7872 4.36991 11.609 4.51358 11.4655C4.65708 11.3218 4.83525 11.25 5.04808 11.25L16.8136 11.25Z" fill="black"/>
</g>
</svg>
