<svg width="21" height="20" viewBox="0 0 21 20" fill="none" xmlns="http://www.w3.org/2000/svg">
<path d="M3.87124 0.589305C3.10304 -0.178898 1.85754 -0.178898 1.08934 0.589305C0.321133 1.35751 0.321133 2.60301 1.08934 3.37121L7.71812 10L1.08933 16.6288C0.321133 17.397 0.321133 18.6425 1.08934 19.4107C1.85754 20.1789 3.10304 20.1789 3.87124 19.4107L10.5 12.7819L17.1288 19.4107C17.897 20.1789 19.1425 20.1789 19.9107 19.4107C20.6789 18.6425 20.6789 17.397 19.9107 16.6288L13.2819 10L19.9107 3.37121C20.6789 2.60301 20.6789 1.35751 19.9107 0.589305C19.1425 -0.178898 17.897 -0.178898 17.1288 0.589305L10.5 7.21809L3.87124 0.589305Z" fill="white"/>
</svg>
