<svg width="20" height="20" viewBox="0 0 20 20" fill="none" xmlns="http://www.w3.org/2000/svg">
<mask id="mask0_97_4435" style="mask-type:alpha" maskUnits="userSpaceOnUse" x="0" y="0" width="20" height="20">
<rect width="20" height="20" fill="#D9D9D9"/>
</mask>
<g mask="url(#mask0_97_4435)">
<path d="M13.7148 15.9359C13.578 16.0224 13.4385 16.1047 13.2965 16.1827C13.1544 16.2607 13.008 16.3317 12.8573 16.3959C12.7024 16.4664 12.5414 16.4664 12.3742 16.3959C12.207 16.3253 12.0924 16.2083 12.0304 16.0448C11.9685 15.89 11.9776 15.7359 12.0577 15.5825C12.1379 15.4292 12.2554 15.3173 12.4102 15.2469C12.5235 15.1998 12.6285 15.1479 12.7252 15.0913C12.8219 15.0348 12.9172 14.9707 13.0113 14.899L9.82376 12.0448V14.125C9.82376 14.4092 9.69369 14.6055 9.43355 14.714C9.17341 14.8223 8.94341 14.7766 8.74355 14.5769L6.25001 12.0834H3.91022C3.69549 12.0834 3.51633 12.0115 3.37272 11.8677C3.22897 11.7241 3.15709 11.5449 3.15709 11.33V8.67003C3.15709 8.45517 3.22897 8.27593 3.37272 8.13232C3.51633 7.98857 3.69549 7.9167 3.91022 7.9167H5.69563L2.10251 4.32378C1.98723 4.20836 1.9282 4.06336 1.92542 3.88878C1.92278 3.71406 1.98181 3.56635 2.10251 3.44565C2.22334 3.32482 2.36973 3.2644 2.54167 3.2644C2.71376 3.2644 2.86015 3.32482 2.98084 3.44565L16.6667 17.1315C16.7821 17.2469 16.8411 17.3919 16.8438 17.5665C16.8464 17.7412 16.7874 17.8889 16.6667 18.0096C16.546 18.1303 16.3996 18.1907 16.2275 18.1907C16.0556 18.1907 15.9092 18.1303 15.7885 18.0096L13.7148 15.9359ZM15.8173 9.9792C15.8173 8.83711 15.5104 7.7917 14.8967 6.84295C14.2829 5.8942 13.4595 5.18642 12.4263 4.71961C12.266 4.64378 12.1479 4.53051 12.0721 4.37982C11.9963 4.22926 11.9877 4.07649 12.0465 3.92149C12.1138 3.75274 12.2324 3.63579 12.4023 3.57065C12.5722 3.50538 12.7442 3.51072 12.9183 3.5867C14.1747 4.15711 15.1803 5.01336 15.935 6.15545C16.6899 7.29753 17.0673 8.57211 17.0673 9.9792C17.0673 10.5124 17.0056 11.0313 16.8821 11.5361C16.7588 12.0409 16.5806 12.5204 16.3477 12.9744C16.2526 13.1998 16.1198 13.3387 15.9494 13.3911C15.7791 13.4434 15.6208 13.4429 15.4744 13.3894C15.328 13.3361 15.2144 13.2404 15.1338 13.1025C15.0531 12.9648 15.0549 12.8099 15.1394 12.6379C15.367 12.2288 15.5369 11.8054 15.649 11.3677C15.7612 10.9302 15.8173 10.4674 15.8173 9.9792ZM12.3846 7.3094C12.7735 7.60635 13.0689 8.00913 13.2708 8.51774C13.4728 9.02621 13.5738 9.52031 13.5738 10C13.5738 10.1229 13.5671 10.2445 13.5538 10.3646C13.5403 10.4848 13.516 10.6036 13.4808 10.7213C13.4424 10.8804 13.3465 10.9811 13.1931 11.0234C13.0398 11.0654 12.9017 11.0251 12.7788 10.9023L12.0369 10.1602C11.9588 10.0823 11.9017 9.99795 11.8654 9.90711C11.829 9.81628 11.8108 9.72065 11.8108 9.62024V7.60732C11.8108 7.46204 11.8771 7.35656 12.0096 7.29086C12.1421 7.22517 12.2671 7.23135 12.3846 7.3094ZM8.28522 6.40878C8.2073 6.33072 8.16966 6.24149 8.1723 6.14107C8.17494 6.04065 8.21528 5.95149 8.29334 5.87357L8.74355 5.42315C8.94341 5.22343 9.17341 5.17774 9.43355 5.28607C9.69369 5.39454 9.82376 5.59086 9.82376 5.87503V7.03524C9.82376 7.20843 9.74709 7.32836 9.59376 7.39503C9.44042 7.46183 9.3023 7.43114 9.17938 7.30295L8.28522 6.40878ZM8.57376 12.625V10.7948L6.94563 9.1667H4.40709V10.8334H6.78209L8.57376 12.625Z" fill="white"/>
</g>
</svg>
