<svg width="20" height="20" viewBox="0 0 20 20" fill="none" xmlns="http://www.w3.org/2000/svg">
<mask id="mask0_97_4436" style="mask-type:alpha" maskUnits="userSpaceOnUse" x="0" y="0" width="20" height="20">
<rect width="20" height="20" fill="#D9D9D9"/>
</mask>
<g mask="url(#mask0_97_4436)">
<path d="M15.7052 9.97918C15.7052 8.83335 15.3982 7.78766 14.7842 6.8421C14.1702 5.89641 13.3468 5.18891 12.3142 4.7196C12.1539 4.64377 12.0358 4.5305 11.96 4.37981C11.8842 4.22925 11.8749 4.07564 11.9321 3.91898C12.0008 3.75189 12.1202 3.63578 12.29 3.57064C12.4599 3.50536 12.6319 3.51071 12.8061 3.58668C14.0624 4.1571 15.0681 5.01543 15.8229 6.16168C16.5777 7.3078 16.955 8.58023 16.955 9.97898C16.955 11.3776 16.5777 12.6501 15.8229 13.7965C15.0681 14.9429 14.0624 15.8013 12.8061 16.3717C12.6319 16.4477 12.4599 16.453 12.29 16.3877C12.1202 16.3226 12.0008 16.2065 11.9321 16.0394C11.8749 15.8827 11.8842 15.7291 11.96 15.5786C12.0358 15.4279 12.1539 15.3146 12.3142 15.2388C13.3468 14.7695 14.1702 14.062 14.7842 13.1163C15.3982 12.1707 15.7052 11.125 15.7052 9.97918ZM6.13793 12.0834H3.79814C3.58467 12.0834 3.40578 12.0111 3.26147 11.8667C3.11717 11.7224 3.04501 11.5435 3.04501 11.33V8.67002C3.04501 8.45654 3.11717 8.27766 3.26147 8.13335C3.40578 7.98891 3.58467 7.91668 3.79814 7.91668H6.13793L8.63147 5.42314C8.83119 5.22342 9.06112 5.17835 9.32126 5.28793C9.5814 5.39752 9.71147 5.59321 9.71147 5.87502V14.125C9.71147 14.4068 9.5814 14.6025 9.32126 14.7121C9.06112 14.8217 8.83119 14.7766 8.63147 14.5769L6.13793 12.0834ZM13.4615 10.0009C13.4615 10.5207 13.3536 11.0127 13.1377 11.4769C12.922 11.9411 12.6312 12.3313 12.2652 12.6475C12.1472 12.7265 12.0232 12.7345 11.8933 12.6715C11.7636 12.6084 11.6988 12.5043 11.6988 12.359V7.59939C11.6988 7.45412 11.7636 7.34995 11.8933 7.28689C12.0232 7.22384 12.1472 7.23141 12.2652 7.3096C12.6312 7.63529 12.922 8.0353 13.1377 8.5096C13.3536 8.98405 13.4615 9.48113 13.4615 10.0009ZM8.46147 7.37502L6.66981 9.16668H4.2948V10.8334H6.66981L8.46147 12.625V7.37502Z" fill="white"/>
</g>
</svg>
