<svg width="24" height="24" viewBox="0 0 24 24" fill="none" xmlns="http://www.w3.org/2000/svg">
<mask id="mask0_23_502" style="mask-type:alpha" maskUnits="userSpaceOnUse" x="0" y="0" width="24" height="24">
<rect width="24" height="24" fill="#D9D9D9"/>
</mask>
<g mask="url(#mask0_23_502)">
<path d="M12 21.5C10.6872 21.5 9.45292 21.2503 8.29725 20.751C7.14142 20.2517 6.13592 19.5744 5.28075 18.7193C4.42558 17.8641 3.74833 16.8586 3.249 15.7028C2.74967 14.5471 2.5 13.3128 2.5 12C2.5 10.6872 2.74967 9.45292 3.249 8.29725C3.74833 7.14142 4.42558 6.13592 5.28075 5.28075C6.13592 4.42558 7.14142 3.74833 8.29725 3.249C9.45292 2.74967 10.6872 2.5 12 2.5C13.3128 2.5 14.5471 2.74967 15.7028 3.249C16.8586 3.74833 17.8641 4.42558 18.7193 5.28075C19.5744 6.13592 20.2517 7.14142 20.751 8.29725C21.2503 9.45292 21.5 10.6872 21.5 12C21.5 13.3128 21.2503 14.5471 20.751 15.7028C20.2517 16.8586 19.5744 17.8641 18.7193 18.7193C17.8641 19.5744 16.8586 20.2517 15.7028 20.751C14.5471 21.2503 13.3128 21.5 12 21.5ZM16.827 9.7885L18.3693 9.28075L18.8078 7.75775C18.2744 6.92558 17.6167 6.214 16.8345 5.623C16.0525 5.032 15.1858 4.59483 14.2345 4.3115L12.75 5.35775V6.93075L16.827 9.7885ZM7.173 9.7885L11.25 6.93075V5.35775L9.7655 4.3115C8.81417 4.59483 7.95067 5.032 7.175 5.623C6.39933 6.214 5.74483 6.92558 5.2115 7.75775L5.65 9.28075L7.173 9.7885ZM5.9885 17.277L7.35 17.1578L8.2155 15.673L6.74625 11.2463L5.15375 10.6885L4 11.5345C4 12.6628 4.14683 13.684 4.4405 14.598C4.734 15.5122 5.25 16.4052 5.9885 17.277ZM12 20C12.4333 20 12.8648 19.9651 13.2943 19.8953C13.7238 19.8254 14.1577 19.7206 14.5962 19.5807L15.373 17.9078L14.6077 16.6345H9.39225L8.64625 17.9078L9.423 19.5807C9.84233 19.7206 10.2683 19.8254 10.701 19.8953C11.1337 19.9651 11.5667 20 12 20ZM9.65375 15.1348H14.3655L15.8038 10.9038L12 8.2385L8.227 10.9038L9.65375 15.1348ZM18.0115 17.277C18.75 16.4052 19.266 15.5122 19.5595 14.598C19.8532 13.684 20 12.6628 20 11.5345L18.8652 10.7385L17.2538 11.227L15.7845 15.673L16.65 17.1578L18.0115 17.277Z" fill="#FF3B5A"/>
</g>
</svg>
