<svg width="24" height="24" viewBox="0 0 24 24" fill="none" xmlns="http://www.w3.org/2000/svg">
<mask id="mask0_23_510" style="mask-type:alpha" maskUnits="userSpaceOnUse" x="0" y="0" width="24" height="24">
<rect width="24" height="24" fill="#D9D9D9"/>
</mask>
<g mask="url(#mask0_23_510)">
<path d="M3.298 19.3078C2.88917 19.3078 2.537 19.16 2.2415 18.8645C1.946 18.5688 1.79825 18.2166 1.79825 17.8078V17.0823C1.79825 16.5684 1.93125 16.1092 2.19725 15.7047C2.46325 15.3002 2.8185 14.9856 3.263 14.7607C4.21333 14.2959 5.16892 13.9375 6.12975 13.6855C7.09075 13.4337 8.14683 13.3078 9.298 13.3078C9.64017 13.3078 9.97858 13.3196 10.3132 13.3432C10.6481 13.3669 10.9782 13.4058 11.3037 13.4598C11.4819 13.4846 11.6092 13.5812 11.6855 13.7495C11.7618 13.9178 11.7684 14.0902 11.7052 14.2667C11.6422 14.4433 11.5224 14.5978 11.3457 14.7302C11.1691 14.8626 10.9186 14.9102 10.5942 14.873C10.3737 14.8462 10.1583 14.8286 9.948 14.8203C9.73783 14.8119 9.52117 14.8078 9.298 14.8078C8.30067 14.8078 7.36608 14.917 6.49425 15.1355C5.62242 15.3542 4.775 15.6757 3.952 16.1C3.725 16.2218 3.55925 16.3642 3.45475 16.527C3.35025 16.6898 3.298 16.8757 3.298 17.0845V17.8078H10.5385C10.7885 17.8078 10.976 17.8857 11.101 18.0415C11.226 18.1973 11.2885 18.3688 11.2885 18.556C11.2885 18.743 11.226 18.915 11.101 19.072C10.976 19.2292 10.7885 19.3078 10.5385 19.3078H3.298ZM9.298 11.6922C8.3355 11.6922 7.51158 11.3496 6.82625 10.6642C6.14092 9.97875 5.79825 9.15475 5.79825 8.19225C5.79825 7.22975 6.14092 6.40583 6.82625 5.7205C7.51158 5.035 8.3355 4.69225 9.298 4.69225C10.2605 4.69225 11.0845 5.035 11.77 5.7205C12.4553 6.40583 12.798 7.22975 12.798 8.19225C12.798 9.15475 12.4553 9.97875 11.77 10.6642C11.0845 11.3496 10.2605 11.6922 9.298 11.6922ZM17.9325 8.19225C17.9325 9.15475 17.5898 9.97875 16.9045 10.6642C16.2192 11.3496 15.3953 11.6922 14.4327 11.6922C14.3199 11.6922 14.1763 11.6794 14.002 11.6537C13.8275 11.6281 13.6839 11.5999 13.5712 11.5692C13.9656 11.0951 14.2687 10.5691 14.4805 9.99125C14.6922 9.41342 14.798 8.81342 14.798 8.19125C14.798 7.56892 14.69 6.97117 14.474 6.398C14.258 5.825 13.9571 5.2975 13.5712 4.8155C13.7147 4.76417 13.8583 4.73083 14.002 4.7155C14.1455 4.7 14.2891 4.69225 14.4327 4.69225C15.3953 4.69225 16.2192 5.035 16.9045 5.7205C17.5898 6.40583 17.9325 7.22975 17.9325 8.19225ZM9.298 10.1922C9.848 10.1922 10.3188 9.99642 10.7105 9.60475C11.1022 9.21308 11.298 8.74225 11.298 8.19225C11.298 7.64225 11.1022 7.17142 10.7105 6.77975C10.3188 6.38808 9.848 6.19225 9.298 6.19225C8.748 6.19225 8.27717 6.38808 7.8855 6.77975C7.49383 7.17142 7.298 7.64225 7.298 8.19225C7.298 8.74225 7.49383 9.21308 7.8855 9.60475C8.27717 9.99642 8.748 10.1922 9.298 10.1922ZM16.8475 19C17.4582 19 17.967 18.8093 18.374 18.428C18.781 18.0465 18.9897 17.5193 19 16.8463C19.0103 16.2346 18.8068 15.7227 18.3895 15.3105C17.9722 14.8983 17.4582 14.6922 16.8475 14.6922C16.2368 14.6922 15.725 14.8988 15.312 15.312C14.8988 15.725 14.6922 16.2368 14.6922 16.8475C14.6922 17.4582 14.8988 17.9696 15.312 18.3818C15.725 18.7939 16.2368 19 16.8475 19ZM16.8462 20.5C15.8414 20.5 14.9812 20.1423 14.2657 19.427C13.5501 18.7117 13.1922 17.8518 13.1922 16.8473C13.1922 15.8428 13.5499 14.9824 14.2652 14.2663C14.9806 13.5503 15.8405 13.1922 16.845 13.1922C17.8497 13.1922 18.71 13.5501 19.426 14.2658C20.142 14.9813 20.5 15.8414 20.5 16.8463C20.5 17.2226 20.4493 17.5785 20.348 17.914C20.2467 18.2495 20.098 18.5608 19.902 18.848L21.877 20.823C22.0153 20.9615 22.0862 21.1356 22.0895 21.3452C22.0927 21.5547 22.025 21.7303 21.8865 21.872C21.748 22.0137 21.5723 22.0829 21.3595 22.0798C21.1467 22.0766 20.9711 22.0058 20.8328 21.8673L18.8577 19.8922C18.5706 20.0947 18.2593 20.2467 17.924 20.348C17.5888 20.4493 17.2296 20.5 16.8462 20.5Z" fill="#FF3B5A"/>
</g>
</svg>
