<svg width="97" height="19" viewBox="0 0 97 19" fill="none" xmlns="http://www.w3.org/2000/svg">
<path d="M4.43576 17.8877C4.27613 17.9761 4.0944 18.0129 3.91267 17.9933H0.462256C0.0865167 17.9933 -0.0608322 17.8263 0.0226655 17.5119L2.8051 5.63318C2.94754 5.03642 3.16611 4.4593 3.45344 3.91902C3.74077 3.36155 4.12387 2.86056 4.58311 2.43571C5.07919 1.99121 5.65385 1.64248 6.27762 1.41163C6.99963 1.14641 7.76585 1.0187 8.53697 1.03589H15.897C16.0861 1.03589 16.2114 1.058 16.2531 1.11939C16.2949 1.18079 16.2949 1.35024 16.2114 1.62038L15.5852 4.36107C15.5631 4.51578 15.4992 4.66068 15.3961 4.77855C15.2806 4.8596 15.1382 4.89643 14.9982 4.88415H9.01831C8.7408 4.87188 8.4633 4.91362 8.20298 5.0094C8.00652 5.08308 7.8297 5.19604 7.67989 5.34339C7.56447 5.47109 7.47115 5.6209 7.4073 5.78298C7.33853 5.9377 7.28205 6.09978 7.2403 6.26432L6.88421 7.76974H13.262C13.4511 7.76974 13.5763 7.81148 13.6181 7.87534C13.6598 7.93919 13.6402 8.10618 13.5763 8.37632L12.9918 10.8862C12.9083 11.2619 12.6996 11.451 12.4073 11.451H6.02467L4.60276 17.5169C4.58557 17.6618 4.52663 17.7993 4.43576 17.9147" fill="white"/>
<path d="M30.7842 9.47897C30.4969 10.7462 30.0622 11.9741 29.4875 13.1381C28.9841 14.1671 28.3038 15.1028 27.4811 15.8985C26.6682 16.6622 25.708 17.2516 24.6569 17.6347C23.4757 18.0547 22.2306 18.261 20.9757 18.2413C19.6643 18.2413 18.5788 18.0473 17.7143 17.6568C16.8941 17.3081 16.2065 16.7064 15.7497 15.9427C15.2831 15.0979 15.0301 14.1475 15.0179 13.1823C14.9859 11.9569 15.121 10.7339 15.4157 9.54282C15.6981 8.28299 16.1475 7.06491 16.7541 5.92541C17.3018 4.88906 18.0164 3.95094 18.8661 3.14297C19.6765 2.37676 20.6294 1.77263 21.6682 1.36496C22.7758 0.947475 23.9546 0.741187 25.1383 0.758378C26.4497 0.758378 27.5351 0.959754 28.3996 1.36496C29.2223 1.7407 29.9124 2.3522 30.3863 3.12087C30.8701 3.96321 31.1354 4.91116 31.1599 5.88121C31.2017 7.09192 31.0764 8.30264 30.7842 9.47897ZM25.9536 9.50107C26.0838 8.90922 26.1746 8.30755 26.2262 7.70342C26.2753 7.20735 26.2385 6.7039 26.1206 6.21765C26.0273 5.82472 25.8062 5.47108 25.4944 5.21322C25.1113 4.94308 24.6471 4.80801 24.178 4.83748C23.7139 4.83503 23.2596 4.95782 22.8617 5.19358C22.4344 5.44898 22.0587 5.78297 21.7542 6.1759C21.4153 6.62041 21.1353 7.1042 20.9167 7.61992C20.6613 8.17248 20.4575 8.74468 20.3101 9.33408C20.1481 9.99469 20.0351 10.6651 19.9761 11.3429C19.9246 11.8488 19.9663 12.3596 20.1014 12.8483C20.2094 13.2364 20.4452 13.5753 20.7718 13.811C21.1598 14.0542 21.6117 14.1696 22.0685 14.145C22.5695 14.1548 23.0606 14.0247 23.4904 13.7693C23.9202 13.5065 24.2886 13.1578 24.5783 12.7452C24.905 12.286 25.1726 11.7874 25.374 11.2594C25.5975 10.6799 25.7792 10.0856 25.9168 9.48143" fill="white"/>
<path d="M62.1326 8.72752C62.5108 8.89451 62.8473 9.14501 63.115 9.45935C63.3581 9.75651 63.5423 10.0979 63.6577 10.4638C63.7731 10.8297 63.8296 11.2103 63.8247 11.5935C63.8198 11.9888 63.7707 12.3818 63.6774 12.7649C63.5054 13.5311 63.1862 14.2556 62.7368 14.899C62.2898 15.5375 61.7397 16.0974 61.1061 16.5517C60.4553 17.0183 59.7358 17.3769 58.972 17.6176C58.1886 17.8681 57.3684 17.9958 56.5457 17.9933H50.2293C49.5589 17.9933 49.1635 17.8681 49.0382 17.6176C48.913 17.3671 48.913 16.9692 49.0382 16.3847L52.2578 2.62482C52.3364 2.18523 52.5329 1.77265 52.8227 1.43375C53.0731 1.16116 53.5348 1.03591 54.2028 1.03591H60.4971C61.1675 1.031 61.8355 1.1145 62.4838 1.2864C63.0266 1.42147 63.53 1.68916 63.9475 2.05998C64.338 2.4259 64.613 2.89987 64.7432 3.41805C64.8856 4.07621 64.8635 4.75647 64.6793 5.4048C64.5123 6.08261 64.1906 6.71375 63.7387 7.24666C63.2992 7.80904 62.7515 8.27811 62.1277 8.62683V8.72997L62.1326 8.72752ZM55.7549 7.26385H58.2844C58.6135 7.25649 58.9376 7.17053 59.225 7.01336C59.5393 6.84637 59.748 6.53202 59.8512 6.07278C59.9568 5.61355 59.8929 5.42445 59.7259 5.2157C59.5098 5.00205 59.2127 4.89399 58.9106 4.92346H56.2976L55.7549 7.26631V7.26385ZM59.0162 12.4702C59.139 12.0846 59.085 11.6622 58.8689 11.3209C58.6601 11.0286 58.2844 10.8813 57.7613 10.8813H54.9175L54.1635 14.0394H57.0074C57.2922 14.0468 57.5771 13.9952 57.8448 13.8921C58.0634 13.7963 58.2623 13.6613 58.4293 13.4943C58.5815 13.3469 58.7068 13.1775 58.805 12.9933C58.8885 12.8263 58.9499 12.6519 58.9941 12.4702" fill="white"/>
<path d="M76.6048 17.9908H69.117C68.1543 17.9908 67.4028 17.8435 66.8576 17.5733C66.364 17.34 65.9564 16.9594 65.6862 16.4854C65.4382 16.0311 65.308 15.5203 65.3105 14.9996C65.3105 14.4495 65.3719 13.9019 65.4996 13.369L67.3193 5.61104C67.4618 5.01428 67.6803 4.43716 67.9677 3.89689C68.255 3.33942 68.6381 2.83843 69.0973 2.41112C69.5934 1.96662 70.1681 1.61789 70.7919 1.38704C71.5188 1.11199 72.2924 0.976923 73.0708 0.989202H80.2222C80.4113 0.989202 80.5365 1.0113 80.5783 1.0727C80.62 1.13409 80.62 1.30355 80.5562 1.57369L79.9078 4.31437C79.8808 4.47155 79.8071 4.61644 79.6991 4.73186C79.5837 4.81536 79.4437 4.8522 79.3012 4.83746H73.508C73.2305 4.82518 72.953 4.86693 72.6927 4.96271C72.4962 5.03638 72.3194 5.14935 72.1696 5.2967C72.0443 5.4244 71.9461 5.57175 71.8773 5.73629C71.8086 5.89101 71.7521 6.05309 71.7103 6.21763L71.4795 7.2417H77.9825C78.1716 7.2417 78.2968 7.28345 78.3386 7.3473C78.3729 7.5143 78.3582 7.68866 78.2968 7.84829L77.7123 10.3778C77.6288 10.7535 77.4324 10.9426 77.1278 10.9426H70.6249L70.2074 12.7624C70.1386 13.0006 70.1165 13.2486 70.1435 13.4942C70.1607 13.6489 70.2368 13.7889 70.3523 13.892C70.4751 13.9829 70.6175 14.0419 70.7698 14.059L71.3346 14.1008H77.4839C77.673 14.1008 77.7983 14.1229 77.84 14.1843C77.8818 14.2457 77.8818 14.4151 77.8179 14.6853L77.1696 17.426C77.0861 17.8017 76.8774 17.9908 76.5851 17.9908" fill="white"/>
<path d="M94.736 4.87924H90.5955L87.6461 17.4898C87.6265 17.6347 87.5675 17.7723 87.4791 17.8877C87.3219 17.9785 87.1377 18.0154 86.956 17.9933H83.5056C83.1299 17.9933 82.9825 17.8263 83.066 17.4923L86.0154 4.88169H81.9805C81.6465 4.88169 81.5213 4.69259 81.6048 4.31685L82.231 1.59827C82.2507 1.40917 82.3317 1.23481 82.4619 1.09728C82.5896 1.03097 82.7345 1.0015 82.8794 1.01378H95.657C95.7896 0.996593 95.9222 1.02606 96.0327 1.09728C96.0966 1.16113 96.0966 1.32813 96.0327 1.59827L95.4065 4.31685C95.323 4.69259 95.1142 4.88169 94.7581 4.88169" fill="white"/>
<path d="M37.604 8.81098L35.5337 17.4898C35.5067 17.6372 35.4429 17.7747 35.3446 17.8877C35.1875 17.981 35.0033 18.0178 34.8215 17.9933H31.3908C31.015 17.9933 30.8677 17.8263 30.9512 17.4923L34.4237 2.95878C34.6128 2.20485 34.8412 1.68421 35.1555 1.43126C35.4699 1.18077 35.9709 1.03342 36.6413 1.03342H37.8962L38.5225 1.07517C38.6845 1.09727 38.8393 1.14639 38.9817 1.22252C39.1315 1.30602 39.2592 1.41899 39.3574 1.55651C39.495 1.7407 39.6128 1.93716 39.7135 2.14099L41.9508 7.32767L43.1418 10.2771H43.3088L45.3815 1.53441C45.4086 1.38706 45.4724 1.25199 45.5706 1.13657C45.7278 1.04325 45.912 1.00641 46.0937 1.03097H49.5441C49.9199 1.03097 50.0672 1.19796 49.9837 1.53195L46.4916 16.0876C46.3811 16.5885 46.1502 17.0527 45.8236 17.4456C45.5166 17.8091 44.9935 17.9884 44.2543 17.9884H42.9994L42.3928 17.9466C42.2258 17.927 42.0613 17.8778 41.9115 17.7993C41.7641 17.7133 41.6364 17.6003 41.5357 17.4653C41.3982 17.286 41.2852 17.0895 41.2017 16.8808L39.0062 11.8194L37.7931 8.80853H37.604V8.81098Z" fill="white"/>
</svg>
